<svg width="62" height="58" viewBox="0 0 62 58" fill="none" xmlns="http://www.w3.org/2000/svg">
<g clip-path="url(#clip0_16_157)">
<path d="M38.798 18.7001L34.202 21.4959L35.9571 29.2099L31.3611 24.3291L26.7651 29.2099L28.5202 21.4959L23.9242 18.7001L29.606 18.3803L31.3611 12.2037L33.1162 18.3803L38.798 18.7001ZM32.8485 7.10185V3.70062C32.8485 3.24959 32.6918 2.81703 32.4128 2.4981C32.1339 2.17917 31.7556 2 31.3611 2C30.9666 2 30.5883 2.17917 30.3094 2.4981C30.0304 2.81703 29.8737 3.24959 29.8737 3.70062V7.10185C29.8737 7.55288 30.0304 7.98544 30.3094 8.30437C30.5883 8.6233 30.9666 8.80247 31.3611 8.80247C31.7556 8.80247 32.1339 8.6233 32.4128 8.30437C32.6918 7.98544 32.8485 7.55288 32.8485 7.10185ZM29.8737 34.3117V37.713C29.8737 38.164 30.0304 38.5966 30.3094 38.9155C30.5883 39.2344 30.9666 39.4136 31.3611 39.4136C31.7556 39.4136 32.1339 39.2344 32.4128 38.9155C32.6918 38.5966 32.8485 38.164 32.8485 37.713V34.3117C32.8485 33.8607 32.6918 33.4281 32.4128 33.1092C32.1339 32.7903 31.7556 32.6111 31.3611 32.6111C30.9666 32.6111 30.5883 32.7903 30.3094 33.1092C30.0304 33.4281 29.8737 33.8607 29.8737 34.3117ZM42.9299 7.47939C42.651 7.16057 42.2727 6.98147 41.8783 6.98147C41.4839 6.98147 41.1057 7.16057 40.8268 7.47939L38.7236 9.88406C38.5816 10.0409 38.4682 10.2286 38.3903 10.4361C38.3123 10.6436 38.2713 10.8667 38.2696 11.0925C38.2679 11.3183 38.3055 11.5423 38.3803 11.7513C38.4551 11.9603 38.5655 12.1501 38.7052 12.3098C38.8448 12.4695 39.0109 12.5958 39.1937 12.6813C39.3765 12.7668 39.5723 12.8098 39.7698 12.8078C39.9673 12.8059 40.1625 12.759 40.344 12.6698C40.5254 12.5807 40.6896 12.4512 40.8268 12.2887L42.9299 9.88406C43.2087 9.56515 43.3654 9.13267 43.3654 8.68173C43.3654 8.23078 43.2087 7.7983 42.9299 7.47939ZM19.7923 33.9342C20.0712 34.253 20.4495 34.4321 20.8439 34.4321C21.2383 34.4321 21.6165 34.253 21.8955 33.9342L23.9986 31.5295C24.2695 31.2088 24.4195 30.7792 24.4161 30.3333C24.4127 29.8874 24.2563 29.4609 23.9805 29.1456C23.7047 28.8303 23.3317 28.6514 22.9417 28.6475C22.5517 28.6437 22.176 28.8151 21.8955 29.1248L19.7923 31.5295C19.5135 31.8484 19.3568 32.2809 19.3568 32.7319C19.3568 33.1828 19.5135 33.6153 19.7923 33.9342ZM46.2348 19.0062H43.2601C42.8656 19.0062 42.4873 19.1853 42.2084 19.5043C41.9294 19.8232 41.7727 20.2558 41.7727 20.7068C41.7727 21.1578 41.9294 21.5904 42.2084 21.9093C42.4873 22.2282 42.8656 22.4074 43.2601 22.4074H46.2348C46.6293 22.4074 47.0076 22.2282 47.2866 21.9093C47.5655 21.5904 47.7222 21.1578 47.7222 20.7068C47.7222 20.2558 47.5655 19.8232 47.2866 19.5043C47.0076 19.1853 46.6293 19.0062 46.2348 19.0062ZM16.4874 22.4074H19.4621C19.8566 22.4074 20.2349 22.2282 20.5139 21.9093C20.7928 21.5904 20.9495 21.1578 20.9495 20.7068C20.9495 20.2558 20.7928 19.8232 20.5139 19.5043C20.2349 19.1853 19.8566 19.0062 19.4621 19.0062H16.4874C16.0929 19.0062 15.7146 19.1853 15.4356 19.5043C15.1567 19.8232 15 20.2558 15 20.7068C15 21.1578 15.1567 21.5904 15.4356 21.9093C15.7146 22.2282 16.0929 22.4074 16.4874 22.4074ZM40.8268 33.9342C41.1073 34.244 41.483 34.4154 41.873 34.4115C42.263 34.4076 42.636 34.2288 42.9118 33.9135C43.1876 33.5982 43.344 33.1716 43.3474 32.7257C43.3508 32.2798 43.2008 31.8503 42.9299 31.5295L40.8268 29.1248C40.5462 28.8151 40.1705 28.6437 39.7805 28.6475C39.3906 28.6514 39.0175 28.8303 38.7417 29.1456C38.466 29.4609 38.3095 29.8874 38.3061 30.3333C38.3028 30.7792 38.4527 31.2088 38.7236 31.5295L40.8268 33.9342ZM23.9986 12.2887C24.2775 11.9698 24.4341 11.5373 24.4341 11.0864C24.4341 10.6355 24.2775 10.203 23.9986 9.88406L21.8955 7.47939C21.6149 7.16961 21.2392 6.9982 20.8492 7.00207C20.4593 7.00594 20.0862 7.1848 19.8104 7.5001C19.5347 7.81541 19.3782 8.24195 19.3749 8.68785C19.3715 9.13374 19.5214 9.56332 19.7923 9.88406L21.8955 12.2887C22.1744 12.6076 22.5526 12.7867 22.947 12.7867C23.3414 12.7867 23.7197 12.6076 23.9986 12.2887Z" fill="white"/>
<path d="M6.34181 49.288V53.736H7.12581V56.776H5.62181V55H2.29381V56.776H0.789813V53.736H1.26181C1.43781 53.4373 1.59781 53.1173 1.74181 52.776C1.88581 52.4293 2.01115 52.0667 2.11781 51.688C2.22448 51.3093 2.31248 50.92 2.38181 50.52C2.45115 50.1147 2.50181 49.704 2.53381 49.288H6.34181ZM3.77381 50.552C3.74715 50.8293 3.70715 51.104 3.65381 51.376C3.60581 51.648 3.54448 51.9173 3.46981 52.184C3.40048 52.4507 3.31781 52.7147 3.22181 52.976C3.12581 53.232 3.01648 53.4853 2.89381 53.736H4.78981V50.552H3.77381ZM13.2334 52.136C13.2334 52.5787 13.1801 52.9813 13.0734 53.344C12.9668 53.7013 12.8014 54.0107 12.5774 54.272C12.3534 54.5333 12.0654 54.7333 11.7134 54.872C11.3668 55.0107 10.9481 55.08 10.4574 55.08C9.97744 55.08 9.56144 55.0107 9.20944 54.872C8.86277 54.7333 8.57477 54.5333 8.34544 54.272C8.12144 54.0107 7.95344 53.7013 7.84144 53.344C7.73477 52.9813 7.68144 52.576 7.68144 52.128C7.68144 51.536 7.7801 51.0213 7.97744 50.584C8.17477 50.1413 8.47877 49.8 8.88944 49.56C9.3001 49.32 9.82544 49.2 10.4654 49.2C11.1161 49.2 11.6441 49.3227 12.0494 49.568C12.4601 49.808 12.7588 50.1493 12.9454 50.592C13.1374 51.0293 13.2334 51.544 13.2334 52.136ZM9.30544 52.136C9.30544 52.4773 9.34277 52.7733 9.41744 53.024C9.49744 53.2693 9.62277 53.4587 9.79344 53.592C9.9641 53.7253 10.1854 53.792 10.4574 53.792C10.7401 53.792 10.9641 53.7253 11.1294 53.592C11.3001 53.4587 11.4228 53.2693 11.4974 53.024C11.5721 52.7733 11.6094 52.4773 11.6094 52.136C11.6094 51.6187 11.5241 51.2107 11.3534 50.912C11.1828 50.6133 10.8868 50.464 10.4654 50.464C10.1881 50.464 9.9641 50.5333 9.79344 50.672C9.62277 50.8053 9.49744 50.9973 9.41744 51.248C9.34277 51.4933 9.30544 51.7893 9.30544 52.136ZM16.8084 50.472C16.6271 50.472 16.4644 50.512 16.3204 50.592C16.1764 50.6667 16.0538 50.7787 15.9524 50.928C15.8511 51.072 15.7738 51.248 15.7204 51.456C15.6671 51.664 15.6404 51.9013 15.6404 52.168C15.6404 52.5253 15.6858 52.8267 15.7764 53.072C15.8671 53.3173 16.0058 53.504 16.1924 53.632C16.3791 53.7547 16.6138 53.816 16.8964 53.816C17.1471 53.816 17.3898 53.7813 17.6244 53.712C17.8644 53.6427 18.1044 53.5573 18.3444 53.456V54.76C18.0938 54.872 17.8351 54.952 17.5684 55C17.3071 55.0533 17.0271 55.08 16.7284 55.08C16.1098 55.08 15.6031 54.9573 15.2084 54.712C14.8138 54.4667 14.5231 54.1253 14.3364 53.688C14.1498 53.2453 14.0564 52.736 14.0564 52.16C14.0564 51.728 14.1151 51.3333 14.2324 50.976C14.3551 50.6133 14.5338 50.3013 14.7684 50.04C15.0031 49.7733 15.2911 49.568 15.6324 49.424C15.9791 49.28 16.3764 49.208 16.8244 49.208C17.1018 49.208 17.3924 49.24 17.6964 49.304C18.0004 49.368 18.2991 49.4693 18.5924 49.608L18.1204 50.824C17.9124 50.7227 17.7018 50.64 17.4884 50.576C17.2751 50.5067 17.0484 50.472 16.8084 50.472ZM21.9798 55H20.4358V50.552H19.0438V49.288H23.3718V50.552H21.9798V55ZM24.1863 49.288H25.6263V51.904C25.6263 52.0213 25.6236 52.144 25.6183 52.272C25.6183 52.4 25.6156 52.528 25.6103 52.656C25.605 52.7787 25.597 52.896 25.5863 53.008C25.581 53.12 25.573 53.2187 25.5623 53.304H25.5943L27.9463 49.288H29.7143V55H28.2743V52.528C28.2743 52.4213 28.2743 52.3013 28.2743 52.168C28.2796 52.0293 28.285 51.888 28.2903 51.744C28.301 51.6 28.309 51.464 28.3143 51.336C28.325 51.2027 28.3356 51.0853 28.3463 50.984H28.3143L25.9623 55H24.1863V49.288ZM32.1041 52.016L30.4401 49.288H32.1041L33.6881 52.056V49.288H35.1761V52.056L36.7681 49.288H38.4321L36.7521 52.016L38.5681 55H36.8641L35.1761 52.104V55H33.6881V52.104L32.0001 55H30.2961L32.1041 52.016ZM42.5471 55H39.1551V49.288H42.5471V50.528H40.6991V51.424H42.4111V52.664H40.6991V53.744H42.5471V55ZM48.4417 55H46.8897V52.672H45.0977V55H43.5457V49.288H45.0977V51.408H46.8897V49.288H48.4417V55ZM49.6707 49.288H51.1107V51.904C51.1107 52.0213 51.108 52.144 51.1027 52.272C51.1027 52.4 51.1 52.528 51.0947 52.656C51.0894 52.7787 51.0814 52.896 51.0707 53.008C51.0654 53.12 51.0574 53.2187 51.0467 53.304H51.0787L53.4307 49.288H55.1987V55H53.7587V52.528C53.7587 52.4213 53.7587 52.3013 53.7587 52.168C53.764 52.0293 53.7694 51.888 53.7747 51.744C53.7854 51.6 53.7934 51.464 53.7987 51.336C53.8094 51.2027 53.82 51.0853 53.8307 50.984H53.7987L51.4467 55H49.6707V49.288ZM58.6125 52.92L57.4845 55H55.7325L57.3005 52.504C57.1458 52.4133 56.9992 52.3013 56.8605 52.168C56.7218 52.0293 56.6098 51.8613 56.5245 51.664C56.4445 51.4667 56.4045 51.2373 56.4045 50.976C56.4045 50.4213 56.5992 50.0027 56.9885 49.72C57.3778 49.432 57.9592 49.288 58.7325 49.288H60.6285V55H59.0845V52.92H58.6125ZM58.7565 50.456C58.5432 50.456 58.3778 50.488 58.2605 50.552C58.1485 50.6107 58.0712 50.6853 58.0285 50.776C57.9858 50.8667 57.9645 50.9573 57.9645 51.048C57.9645 51.3147 58.0418 51.5013 58.1965 51.608C58.3512 51.7093 58.5512 51.76 58.7965 51.76H59.0845V50.456H58.7565Z" fill="white"/>
</g>
<defs>
<clipPath id="clip0_16_157">
<rect width="62" height="58" fill="white"/>
</clipPath>
</defs>
</svg>
