<svg width="58" height="58" viewBox="0 0 58 58" fill="none" xmlns="http://www.w3.org/2000/svg">
<g clip-path="url(#clip0_16_147)">
<path d="M52.9253 22.4032H48.9627C48.8586 22.4032 48.7554 22.4186 48.6592 22.4486C48.563 22.4787 48.4755 22.5227 48.4019 22.5782C48.3282 22.6337 48.2698 22.6996 48.23 22.7721C48.1902 22.8446 48.1697 22.9224 48.1698 23.0008V26.6114C47.2171 25.919 45.9453 25.5321 44.6218 25.5319H22.4368C22.5621 25.3021 22.6266 25.0561 22.6267 24.8076V24.3227C22.6259 23.8138 22.3574 23.3259 21.8799 22.9661C21.4024 22.6062 20.7549 22.4038 20.0796 22.4032H12.3729C11.6976 22.4038 11.0502 22.6062 10.5727 22.9661C10.0952 23.3259 9.8266 23.8138 9.82588 24.3227V24.8076C9.82609 25.1618 9.95727 25.5088 10.2047 25.8099C9.59241 25.9949 9.03306 26.2668 8.55713 26.611V18.2498C8.55719 18.1713 8.53672 18.0935 8.49689 18.021C8.45706 17.9485 8.39865 17.8826 8.32501 17.8271C8.25136 17.7716 8.16392 17.7276 8.06769 17.6976C7.97145 17.6675 7.86831 17.6521 7.76416 17.6522H4.13916C4.03501 17.6521 3.93187 17.6675 3.83563 17.6976C3.7394 17.7276 3.65196 17.7716 3.57831 17.8271C3.50467 17.8826 3.44626 17.9485 3.40643 18.021C3.3666 18.0935 3.34613 18.1713 3.34619 18.2498V36.8576C3.34619 37.0161 3.42974 37.1681 3.57845 37.2802C3.72716 37.3923 3.92885 37.4552 4.13916 37.4552H7.76416C7.97447 37.4552 8.17616 37.3923 8.32487 37.2802C8.47358 37.1681 8.55713 37.0161 8.55713 36.8576V33.967H48.1698V36.8576C48.1698 37.0161 48.2533 37.1681 48.402 37.2802C48.5507 37.3923 48.7524 37.4552 48.9627 37.4552H52.9253C53.1356 37.4552 53.3373 37.3923 53.486 37.2802C53.6347 37.1681 53.7183 37.0161 53.7183 36.8576V23.0008C53.7183 22.9224 53.6979 22.8446 53.658 22.7721C53.6182 22.6996 53.5598 22.6337 53.4862 22.5782C53.4125 22.5227 53.3251 22.4787 53.2288 22.4486C53.1326 22.4186 53.0295 22.4032 52.9253 22.4032ZM11.4118 24.3227C11.4121 24.1307 11.5134 23.9466 11.6936 23.8108C11.8738 23.675 12.1181 23.5986 12.3729 23.5984H20.0796C20.3345 23.5986 20.5788 23.675 20.759 23.8108C20.9391 23.9466 21.0405 24.1307 21.0407 24.3227V24.8076C21.0405 24.9997 20.9391 25.1838 20.759 25.3196C20.5788 25.4554 20.3345 25.5318 20.0796 25.5319H12.3729C12.1181 25.5318 11.8738 25.4554 11.6936 25.3196C11.5134 25.1838 11.4121 24.9997 11.4118 24.8076V24.3227ZM12.1046 26.7271H44.6218C45.5625 26.7279 46.4643 27.0099 47.1294 27.5112C47.7945 28.0124 48.1687 28.6921 48.1698 29.401V30.0156H8.55713V29.401C8.55809 28.6921 8.93214 28.0125 9.5972 27.5112C10.2623 27.0099 11.164 26.7279 12.1046 26.7271ZM6.97119 36.26H4.93213V18.8474H6.97119V36.26ZM8.55713 32.7718V31.2112H48.1698V32.7718H8.55713ZM52.1323 36.26H49.7557V23.5984H52.1323V36.26Z" fill="white"/>
<path d="M17.7208 43.1141V47.5621H18.5048V50.6021H17.0008V48.8261H13.6728V50.6021H12.1688V47.5621H12.6408C12.8168 47.2634 12.9768 46.9434 13.1208 46.6021C13.2648 46.2554 13.3901 45.8928 13.4968 45.5141C13.6034 45.1354 13.6914 44.7461 13.7608 44.3461C13.8301 43.9408 13.8808 43.5301 13.9128 43.1141H17.7208ZM15.1528 44.3781C15.1261 44.6554 15.0861 44.9301 15.0328 45.2021C14.9848 45.4741 14.9234 45.7434 14.8488 46.0101C14.7794 46.2768 14.6968 46.5408 14.6008 46.8021C14.5048 47.0581 14.3954 47.3114 14.2728 47.5621H16.1688V44.3781H15.1528ZM22.6604 48.8261H19.2684V43.1141H22.6604V44.3541H20.8124V45.2501H22.5244V46.4901H20.8124V47.5701H22.6604V48.8261ZM26.179 48.8261H24.635V44.3781H23.243V43.1141H27.571V44.3781H26.179V48.8261ZM31.3271 48.8261L31.0471 47.7541H29.1911L28.9031 48.8261H27.2071L29.0711 43.0901H31.1271L33.0151 48.8261H31.3271ZM30.4791 45.5541C30.4524 45.4528 30.4151 45.3088 30.3671 45.1221C30.3191 44.9301 30.2711 44.7328 30.2231 44.5301C30.1751 44.3274 30.1377 44.1621 30.1111 44.0341C30.0897 44.1621 30.0551 44.3221 30.0071 44.5141C29.9644 44.7061 29.9191 44.8954 29.8711 45.0821C29.8284 45.2688 29.7911 45.4261 29.7591 45.5541L29.5111 46.4901H30.7271L30.4791 45.5541ZM38.4918 48.8261H36.9398V44.3781H35.8518C35.8304 44.5914 35.8038 44.8314 35.7718 45.0981C35.7451 45.3648 35.7131 45.6394 35.6758 45.9221C35.6384 46.1994 35.5984 46.4688 35.5558 46.7301C35.5131 46.9861 35.4704 47.2101 35.4278 47.4021C35.3584 47.7168 35.2571 47.9861 35.1238 48.2101C34.9958 48.4341 34.8171 48.6074 34.5878 48.7301C34.3638 48.8474 34.0731 48.9061 33.7158 48.9061C33.5984 48.9061 33.4891 48.8981 33.3878 48.8821C33.2918 48.8661 33.1984 48.8448 33.1078 48.8181V47.6261C33.1824 47.6474 33.2491 47.6661 33.3078 47.6821C33.3664 47.6981 33.4278 47.7061 33.4918 47.7061C33.5771 47.7061 33.6518 47.6821 33.7158 47.6341C33.7851 47.5808 33.8491 47.4714 33.9078 47.3061C33.9664 47.1408 34.0251 46.8848 34.0838 46.5381C34.1051 46.4261 34.1318 46.2581 34.1638 46.0341C34.2011 45.8101 34.2384 45.5461 34.2758 45.2421C34.3184 44.9381 34.3638 44.6048 34.4118 44.2421C34.4598 43.8794 34.5051 43.5034 34.5478 43.1141H38.4918V48.8261ZM39.7215 43.1141H41.1615V45.7301C41.1615 45.8474 41.1588 45.9701 41.1535 46.0981C41.1535 46.2261 41.1508 46.3541 41.1455 46.4821C41.1402 46.6048 41.1322 46.7221 41.1215 46.8341C41.1162 46.9461 41.1082 47.0448 41.0975 47.1301H41.1295L43.4815 43.1141H45.2495V48.8261H43.8095V46.3541C43.8095 46.2474 43.8095 46.1274 43.8095 45.9941C43.8148 45.8554 43.8202 45.7141 43.8255 45.5701C43.8362 45.4261 43.8442 45.2901 43.8495 45.1621C43.8602 45.0288 43.8708 44.9114 43.8815 44.8101H43.8495L41.4975 48.8261H39.7215V43.1141ZM23.5975 53.2981C23.4162 53.2981 23.2535 53.3381 23.1095 53.4181C22.9655 53.4928 22.8429 53.6048 22.7415 53.7541C22.6402 53.8981 22.5629 54.0741 22.5095 54.2821C22.4562 54.4901 22.4295 54.7274 22.4295 54.9941C22.4295 55.3514 22.4749 55.6528 22.5655 55.8981C22.6562 56.1434 22.7949 56.3301 22.9815 56.4581C23.1682 56.5808 23.4029 56.6421 23.6855 56.6421C23.9362 56.6421 24.1789 56.6074 24.4135 56.5381C24.6535 56.4688 24.8935 56.3834 25.1335 56.2821V57.5861C24.8829 57.6981 24.6242 57.7781 24.3575 57.8261C24.0962 57.8794 23.8162 57.9061 23.5175 57.9061C22.8989 57.9061 22.3922 57.7834 21.9975 57.5381C21.6029 57.2928 21.3122 56.9514 21.1255 56.5141C20.9389 56.0714 20.8455 55.5621 20.8455 54.9861C20.8455 54.5541 20.9042 54.1594 21.0215 53.8021C21.1442 53.4394 21.3229 53.1274 21.5575 52.8661C21.7922 52.5994 22.0802 52.3941 22.4215 52.2501C22.7682 52.1061 23.1655 52.0341 23.6135 52.0341C23.8909 52.0341 24.1815 52.0661 24.4855 52.1301C24.7895 52.1941 25.0882 52.2954 25.3815 52.4341L24.9095 53.6501C24.7015 53.5488 24.4909 53.4661 24.2775 53.4021C24.0642 53.3328 23.8375 53.2981 23.5975 53.2981ZM31.1449 57.8261H29.5929V55.4981H27.8009V57.8261H26.2489V52.1141H27.8009V54.2341H29.5929V52.1141H31.1449V57.8261ZM35.8779 57.8261L35.5979 56.7541H33.7419L33.4539 57.8261H31.7579L33.6219 52.0901H35.6779L37.5659 57.8261H35.8779ZM35.0299 54.5541C35.0032 54.4528 34.9659 54.3088 34.9179 54.1221C34.8699 53.9301 34.8219 53.7328 34.7739 53.5301C34.7259 53.3274 34.6885 53.1621 34.6619 53.0341C34.6405 53.1621 34.6059 53.3221 34.5579 53.5141C34.5152 53.7061 34.4699 53.8954 34.4219 54.0821C34.3792 54.2688 34.3419 54.4261 34.3099 54.5541L34.0619 55.4901H35.2779L35.0299 54.5541Z" fill="white"/>
</g>
<defs>
<clipPath id="clip0_16_147">
<rect width="58" height="58" fill="white"/>
</clipPath>
</defs>
</svg>
