<svg width="58" height="61" viewBox="0 0 58 61" fill="none" xmlns="http://www.w3.org/2000/svg">
<g clip-path="url(#clip0_97_2)">
<g filter="url(#filter0_d_97_2)">
<path d="M-2.41663 31.4167C-2.41663 14.0657 11.6491 0 29 0V0C46.351 0 60.4167 14.0657 60.4167 31.4167V62.7767H-2.41663V31.4167Z" fill="#697AC0"/>
</g>
<path d="M9.2224 19.8175L9.19605 19.8504H13.5874V35.4318C13.5874 35.8909 13.8187 36.3313 14.2305 36.656C14.6423 36.9806 15.2007 37.163 15.7831 37.163H42.1311C42.7134 37.163 43.2719 36.9806 43.6837 36.656C44.0955 36.3313 44.3268 35.8909 44.3268 35.4318V19.8504H48.7181C49.1894 19.8505 49.6482 19.731 50.0267 19.5096C50.4052 19.2882 50.6833 18.9767 50.82 18.6211C50.9566 18.2654 50.9445 17.8846 50.7855 17.5348C50.6264 17.185 50.3288 16.8849 49.9367 16.6787L30.1757 6.29111C29.8149 6.1013 29.3908 6 28.9571 6C28.5233 6 28.0993 6.1013 27.7385 6.29111L7.97745 16.6787C7.73753 16.8049 7.53147 16.9671 7.37105 17.156C7.21063 17.345 7.099 17.557 7.04252 17.78C6.98604 18.003 6.98583 18.2326 7.04189 18.4556C7.09795 18.6787 7.20919 18.8908 7.36925 19.08C7.57419 19.3162 7.85157 19.5076 8.17557 19.6366C8.49958 19.7655 8.85969 19.8278 9.2224 19.8175ZM24.5657 25.0442C24.5657 24.585 24.7971 24.1447 25.2088 23.82C25.6206 23.4953 26.1791 23.3129 26.7614 23.3129H31.1528C31.7351 23.3129 32.2936 23.4953 32.7053 23.82C33.1171 24.1447 33.3484 24.585 33.3484 25.0442V33.7005H24.5657V25.0442Z" fill="white"/>
<path d="M13.9865 53.288V54.536H11.7305V59H10.1785V53.288H13.9865ZM19.2691 59H17.7171V54.552H16.6291C16.6077 54.7653 16.5811 55.0053 16.5491 55.272C16.5224 55.5387 16.4904 55.8133 16.4531 56.096C16.4157 56.3733 16.3757 56.6427 16.3331 56.904C16.2904 57.16 16.2477 57.384 16.2051 57.576C16.1357 57.8907 16.0344 58.16 15.9011 58.384C15.7731 58.608 15.5944 58.7813 15.3651 58.904C15.1411 59.0213 14.8504 59.08 14.4931 59.08C14.3757 59.08 14.2664 59.072 14.1651 59.056C14.0691 59.04 13.9757 59.0187 13.8851 58.992V57.8C13.9597 57.8213 14.0264 57.84 14.0851 57.856C14.1437 57.872 14.2051 57.88 14.2691 57.88C14.3544 57.88 14.4291 57.856 14.4931 57.808C14.5624 57.7547 14.6264 57.6453 14.6851 57.48C14.7437 57.3147 14.8024 57.0587 14.8611 56.712C14.8824 56.6 14.9091 56.432 14.9411 56.208C14.9784 55.984 15.0157 55.72 15.0531 55.416C15.0957 55.112 15.1411 54.7787 15.1891 54.416C15.2371 54.0533 15.2824 53.6773 15.3251 53.288H19.2691V59ZM24.0028 59L23.7228 57.928H21.8668L21.5788 59H19.8828L21.7468 53.264H23.8028L25.6908 59H24.0028ZM23.1548 55.728C23.1281 55.6267 23.0908 55.4827 23.0428 55.296C22.9948 55.104 22.9468 54.9067 22.8988 54.704C22.8508 54.5013 22.8135 54.336 22.7868 54.208C22.7655 54.336 22.7308 54.496 22.6828 54.688C22.6401 54.88 22.5948 55.0693 22.5468 55.256C22.5041 55.4427 22.4668 55.6 22.4348 55.728L22.1868 56.664H23.4028L23.1548 55.728ZM28.2955 53.288C28.8448 53.288 29.2875 53.344 29.6235 53.456C29.9595 53.5627 30.2048 53.7227 30.3595 53.936C30.5142 54.144 30.5915 54.4027 30.5915 54.712C30.5915 54.9627 30.5462 55.176 30.4555 55.352C30.3648 55.5227 30.2502 55.6587 30.1115 55.76C29.9782 55.8613 29.8395 55.9307 29.6955 55.968V56.008C29.8502 56.0453 30.0048 56.1093 30.1595 56.2C30.3142 56.2907 30.4422 56.4267 30.5435 56.608C30.6502 56.784 30.7035 57.024 30.7035 57.328C30.7035 57.6747 30.6155 57.9733 30.4395 58.224C30.2635 58.4747 30.0128 58.6667 29.6875 58.8C29.3622 58.9333 28.9755 59 28.5275 59H26.3035V53.288H28.2955ZM28.3115 55.48C28.5675 55.48 28.7462 55.4267 28.8475 55.32C28.9542 55.2133 29.0075 55.0853 29.0075 54.936C29.0075 54.7813 28.9488 54.664 28.8315 54.584C28.7142 54.4987 28.5302 54.456 28.2795 54.456H27.8475V55.48H28.3115ZM27.8475 56.608V57.808H28.3915C28.6582 57.808 28.8448 57.752 28.9515 57.64C29.0582 57.5227 29.1115 57.376 29.1115 57.2C29.1115 57.0987 29.0875 57.0027 29.0395 56.912C28.9968 56.8213 28.9195 56.7493 28.8075 56.696C28.7008 56.6373 28.5515 56.608 28.3595 56.608H27.8475ZM36.5901 59H35.0381V56.672H33.2461V59H31.6941V53.288H33.2461V55.408H35.0381V53.288H36.5901V59ZM41.3231 59L41.0431 57.928H39.1871L38.8991 59H37.2031L39.0671 53.264H41.1231L43.0111 59H41.3231ZM40.4751 55.728C40.4485 55.6267 40.4111 55.4827 40.3631 55.296C40.3151 55.104 40.2671 54.9067 40.2191 54.704C40.1711 54.5013 40.1338 54.336 40.1071 54.208C40.0858 54.336 40.0511 54.496 40.0031 54.688C39.9605 54.88 39.9151 55.0693 39.8671 55.256C39.8245 55.4427 39.7871 55.6 39.7551 55.728L39.5071 56.664H40.7231L40.4751 55.728ZM45.8078 56.92L44.6798 59H42.9278L44.4958 56.504C44.3411 56.4133 44.1945 56.3013 44.0558 56.168C43.9171 56.0293 43.8051 55.8613 43.7198 55.664C43.6398 55.4667 43.5998 55.2373 43.5998 54.976C43.5998 54.4213 43.7945 54.0027 44.1838 53.72C44.5731 53.432 45.1545 53.288 45.9278 53.288H47.8238V59H46.2798V56.92H45.8078ZM45.9518 54.456C45.7385 54.456 45.5731 54.488 45.4558 54.552C45.3438 54.6107 45.2665 54.6853 45.2238 54.776C45.1811 54.8667 45.1598 54.9573 45.1598 55.048C45.1598 55.3147 45.2371 55.5013 45.3918 55.608C45.5465 55.7093 45.7465 55.76 45.9918 55.76H46.2798V54.456H45.9518Z" fill="white"/>
</g>
<defs>
<filter id="filter0_d_97_2" x="-6.41663" y="0" width="70.8334" height="70.7767" filterUnits="userSpaceOnUse" color-interpolation-filters="sRGB">
<feFlood flood-opacity="0" result="BackgroundImageFix"/>
<feColorMatrix in="SourceAlpha" type="matrix" values="0 0 0 0 0 0 0 0 0 0 0 0 0 0 0 0 0 0 127 0" result="hardAlpha"/>
<feOffset dy="4"/>
<feGaussianBlur stdDeviation="2"/>
<feComposite in2="hardAlpha" operator="out"/>
<feColorMatrix type="matrix" values="0 0 0 0 0 0 0 0 0 0 0 0 0 0 0 0 0 0 0.25 0"/>
<feBlend mode="normal" in2="BackgroundImageFix" result="effect1_dropShadow_97_2"/>
<feBlend mode="normal" in="SourceGraphic" in2="effect1_dropShadow_97_2" result="shape"/>
</filter>
<clipPath id="clip0_97_2">
<rect width="58" height="61" fill="white"/>
</clipPath>
</defs>
</svg>
