<svg width="58" height="58" viewBox="0 0 58 58" fill="none" xmlns="http://www.w3.org/2000/svg">
<g clip-path="url(#clip0_16_150)">
<path d="M28.7222 25.4815C28.2949 25.4815 27.8851 25.34 27.583 25.0882C27.2809 24.8365 27.1111 24.495 27.1111 24.1389V5.34259C27.1111 4.98651 27.2809 4.64502 27.583 4.39324C27.8851 4.14145 28.2949 4 28.7222 4C29.1495 4 29.5593 4.14145 29.8615 4.39324C30.1636 4.64502 30.3333 4.98651 30.3333 5.34259V24.1389C30.3333 24.495 30.1636 24.8365 29.8615 25.0882C29.5593 25.34 29.1495 25.4815 28.7222 25.4815ZM28.7222 38.9074C28.2949 38.9074 27.8851 38.766 27.583 38.5142C27.2809 38.2624 27.1111 37.9209 27.1111 37.5648V28.07C27.1111 27.7139 27.2809 27.3724 27.583 27.1206C27.8851 26.8689 28.2949 26.7274 28.7222 26.7274C29.1495 26.7274 29.5593 26.8689 29.8615 27.1206C30.1636 27.3724 30.3333 27.7139 30.3333 28.07V37.5648C30.3333 37.9209 30.1636 38.2624 29.8615 38.5142C29.5593 38.766 29.1495 38.9074 28.7222 38.9074ZM12.6111 17.4259C12.1838 17.4259 11.774 17.2845 11.4719 17.0327C11.1697 16.7809 11 16.4394 11 16.0833V5.34259C11 4.98651 11.1697 4.64502 11.4719 4.39324C11.774 4.14145 12.1838 4 12.6111 4C13.0384 4 13.4482 4.14145 13.7503 4.39324C14.0525 4.64502 14.2222 4.98651 14.2222 5.34259V16.0833C14.2222 16.4394 14.0525 16.7809 13.7503 17.0327C13.4482 17.2845 13.0384 17.4259 12.6111 17.4259ZM12.6111 38.9074C12.1838 38.9074 11.774 38.766 11.4719 38.5142C11.1697 38.2624 11 37.9209 11 37.5648V19.9742C11 19.6181 11.1697 19.2766 11.4719 19.0248C11.774 18.773 12.1838 18.6316 12.6111 18.6316C13.0384 18.6316 13.4482 18.773 13.7503 19.0248C14.0525 19.2766 14.2222 19.6181 14.2222 19.9742V37.5648C14.2222 37.9209 14.0525 38.2624 13.7503 38.5142C13.4482 38.766 13.0384 38.9074 12.6111 38.9074ZM44.8333 13.3981C44.406 13.3981 43.9962 13.2567 43.6941 13.0049C43.392 12.7531 43.2222 12.4116 43.2222 12.0556V5.34259C43.2222 4.98651 43.392 4.64502 43.6941 4.39324C43.9962 4.14145 44.406 4 44.8333 4C45.2606 4 45.6704 4.14145 45.9726 4.39324C46.2747 4.64502 46.4444 4.98651 46.4444 5.34259V12.0556C46.4444 12.4116 46.2747 12.7531 45.9726 13.0049C45.6704 13.2567 45.2606 13.3981 44.8333 13.3981ZM44.8333 38.9074C44.406 38.9074 43.9962 38.766 43.6941 38.5142C43.392 38.2624 43.2222 37.9209 43.2222 37.5648V16.0833C43.2222 15.7273 43.392 15.3858 43.6941 15.134C43.9962 14.8822 44.406 14.7407 44.8333 14.7407C45.2606 14.7407 45.6704 14.8822 45.9726 15.134C46.2747 15.3858 46.4444 15.7273 46.4444 16.0833V37.5648C46.4444 37.9209 46.2747 38.2624 45.9726 38.5142C45.6704 38.766 45.2606 38.9074 44.8333 38.9074Z" fill="white"/>
<path d="M48.8889 13.4259H39.2222C38.795 13.4259 38.3852 13.2845 38.083 13.0327C37.7809 12.7809 37.6111 12.4394 37.6111 12.0833C37.6111 11.7272 37.7809 11.3857 38.083 11.134C38.3852 10.8822 38.795 10.7407 39.2222 10.7407H48.8889C49.3162 10.7407 49.726 10.8822 50.0281 11.134C50.3303 11.3857 50.5 11.7272 50.5 12.0833C50.5 12.4394 50.3303 12.7809 50.0281 13.0327C49.726 13.2845 49.3162 13.4259 48.8889 13.4259ZM32.7778 25.5092H23.1111C22.6838 25.5092 22.2741 25.3678 21.9719 25.116C21.6698 24.8642 21.5 24.5227 21.5 24.1666C21.5 23.8106 21.6698 23.4691 21.9719 23.2173C22.2741 22.9655 22.6838 22.8241 23.1111 22.8241H32.7778C33.2051 22.8241 33.6149 22.9655 33.917 23.2173C34.2192 23.4691 34.3889 23.8106 34.3889 24.1666C34.3889 24.5227 34.2192 24.8642 33.917 25.116C33.6149 25.3678 33.2051 25.5092 32.7778 25.5092ZM16.6667 17.4537H7.00003C6.57273 17.4537 6.16294 17.3122 5.8608 17.0604C5.55866 16.8087 5.38892 16.4672 5.38892 16.1111C5.38892 15.755 5.55866 15.4135 5.8608 15.1617C6.16294 14.91 6.57273 14.7685 7.00003 14.7685H16.6667C17.094 14.7685 17.5038 14.91 17.8059 15.1617C18.1081 15.4135 18.2778 15.755 18.2778 16.1111C18.2778 16.4672 18.1081 16.8087 17.8059 17.0604C17.5038 17.3122 17.094 17.4537 16.6667 17.4537Z" fill="white"/>
<path d="M8.36895 55H6.81695V52.672H5.02495V55H3.47295V49.288H5.02495V51.408H6.81695V49.288H8.36895V55ZM13.1019 55L12.8219 53.928H10.9659L10.6779 55H8.98195L10.8459 49.264H12.9019L14.7899 55H13.1019ZM12.2539 51.728C12.2273 51.6267 12.1899 51.4827 12.1419 51.296C12.0939 51.104 12.0459 50.9067 11.9979 50.704C11.9499 50.5013 11.9126 50.336 11.8859 50.208C11.8646 50.336 11.8299 50.496 11.7819 50.688C11.7393 50.88 11.6939 51.0693 11.6459 51.256C11.6033 51.4427 11.5659 51.6 11.5339 51.728L11.2859 52.664H12.5019L12.2539 51.728ZM17.9466 50.472C17.7653 50.472 17.6026 50.512 17.4586 50.592C17.3146 50.6667 17.192 50.7787 17.0906 50.928C16.9893 51.072 16.912 51.248 16.8586 51.456C16.8053 51.664 16.7786 51.9013 16.7786 52.168C16.7786 52.5253 16.824 52.8267 16.9146 53.072C17.0053 53.3173 17.144 53.504 17.3306 53.632C17.5173 53.7547 17.752 53.816 18.0346 53.816C18.2853 53.816 18.528 53.7813 18.7626 53.712C19.0026 53.6427 19.2426 53.5573 19.4826 53.456V54.76C19.232 54.872 18.9733 54.952 18.7066 55C18.4453 55.0533 18.1653 55.08 17.8666 55.08C17.248 55.08 16.7413 54.9573 16.3466 54.712C15.952 54.4667 15.6613 54.1253 15.4746 53.688C15.288 53.2453 15.1946 52.736 15.1946 52.16C15.1946 51.728 15.2533 51.3333 15.3706 50.976C15.4933 50.6133 15.672 50.3013 15.9066 50.04C16.1413 49.7733 16.4293 49.568 16.7706 49.424C17.1173 49.28 17.5146 49.208 17.9626 49.208C18.24 49.208 18.5306 49.24 18.8346 49.304C19.1386 49.368 19.4373 49.4693 19.7306 49.608L19.2586 50.824C19.0506 50.7227 18.84 50.64 18.6266 50.576C18.4133 50.5067 18.1866 50.472 17.9466 50.472ZM23.1179 55H21.5739V50.552H20.1819V49.288H24.5099V50.552H23.1179V55ZM27.3005 49.288C28.0258 49.288 28.5672 49.4453 28.9245 49.76C29.2872 50.0747 29.4685 50.5227 29.4685 51.104C29.4685 51.3653 29.4312 51.616 29.3565 51.856C29.2818 52.0907 29.1592 52.304 28.9885 52.496C28.8232 52.6827 28.6018 52.832 28.3245 52.944C28.0472 53.0507 27.7058 53.104 27.3005 53.104H26.8685V55H25.3245V49.288H27.3005ZM27.2685 50.536H26.8685V51.848H27.1725C27.3058 51.848 27.4285 51.8267 27.5405 51.784C27.6578 51.736 27.7512 51.6613 27.8205 51.56C27.8898 51.4533 27.9245 51.3147 27.9245 51.144C27.9245 50.9627 27.8712 50.816 27.7645 50.704C27.6578 50.592 27.4925 50.536 27.2685 50.536ZM35.7232 52.136C35.7232 52.5787 35.6699 52.9813 35.5632 53.344C35.4565 53.7013 35.2912 54.0107 35.0672 54.272C34.8432 54.5333 34.5552 54.7333 34.2032 54.872C33.8565 55.0107 33.4379 55.08 32.9472 55.08C32.4672 55.08 32.0512 55.0107 31.6992 54.872C31.3525 54.7333 31.0645 54.5333 30.8352 54.272C30.6112 54.0107 30.4432 53.7013 30.3312 53.344C30.2245 52.9813 30.1712 52.576 30.1712 52.128C30.1712 51.536 30.2699 51.0213 30.4672 50.584C30.6645 50.1413 30.9685 49.8 31.3792 49.56C31.7899 49.32 32.3152 49.2 32.9552 49.2C33.6059 49.2 34.1339 49.3227 34.5392 49.568C34.9499 49.808 35.2485 50.1493 35.4352 50.592C35.6272 51.0293 35.7232 51.544 35.7232 52.136ZM31.7952 52.136C31.7952 52.4773 31.8325 52.7733 31.9072 53.024C31.9872 53.2693 32.1125 53.4587 32.2832 53.592C32.4539 53.7253 32.6752 53.792 32.9472 53.792C33.2299 53.792 33.4539 53.7253 33.6192 53.592C33.7899 53.4587 33.9125 53.2693 33.9872 53.024C34.0619 52.7733 34.0992 52.4773 34.0992 52.136C34.0992 51.6187 34.0139 51.2107 33.8432 50.912C33.6725 50.6133 33.3765 50.464 32.9552 50.464C32.6779 50.464 32.4539 50.5333 32.2832 50.672C32.1125 50.8053 31.9872 50.9973 31.9072 51.248C31.8325 51.4933 31.7952 51.7893 31.7952 52.136ZM41.6342 47.376C41.6022 47.6693 41.5169 47.928 41.3782 48.152C41.2395 48.376 41.0342 48.552 40.7622 48.68C40.4902 48.8027 40.1355 48.864 39.6982 48.864C39.2769 48.864 38.9275 48.8107 38.6502 48.704C38.3782 48.592 38.1729 48.4267 38.0342 48.208C37.8955 47.984 37.8129 47.7067 37.7862 47.376H39.0582C39.0742 47.6587 39.1355 47.8507 39.2422 47.952C39.3542 48.0533 39.5062 48.104 39.6982 48.104C39.8689 48.104 40.0129 48.0533 40.1302 47.952C40.2475 47.8453 40.3169 47.6533 40.3382 47.376H41.6342ZM36.7542 49.288H38.1942V51.904C38.1942 52.0213 38.1915 52.144 38.1862 52.272C38.1862 52.4 38.1835 52.528 38.1782 52.656C38.1729 52.7787 38.1649 52.896 38.1542 53.008C38.1489 53.12 38.1409 53.2187 38.1302 53.304H38.1622L40.5142 49.288H42.2822V55H40.8422V52.528C40.8422 52.4213 40.8422 52.3013 40.8422 52.168C40.8475 52.0293 40.8529 51.888 40.8582 51.744C40.8689 51.6 40.8769 51.464 40.8822 51.336C40.8929 51.2027 40.9035 51.0853 40.9142 50.984H40.8822L38.5302 55H36.7542V49.288ZM48.504 55H46.76L45.064 52.104V55H43.512V49.288H45.064V52.056L46.696 49.288H48.392L46.632 52.016L48.504 55ZM49.0901 49.288H50.5301V51.904C50.5301 52.0213 50.5275 52.144 50.5221 52.272C50.5221 52.4 50.5195 52.528 50.5141 52.656C50.5088 52.7787 50.5008 52.896 50.4901 53.008C50.4848 53.12 50.4768 53.2187 50.4661 53.304H50.4981L52.8501 49.288H54.6181V55H53.1781V52.528C53.1781 52.4213 53.1781 52.3013 53.1781 52.168C53.1835 52.0293 53.1888 51.888 53.1941 51.744C53.2048 51.6 53.2128 51.464 53.2181 51.336C53.2288 51.2027 53.2395 51.0853 53.2501 50.984H53.2181L50.8661 55H49.0901V49.288Z" fill="white"/>
</g>
<defs>
<clipPath id="clip0_16_150">
<rect width="58" height="58" fill="white"/>
</clipPath>
</defs>
</svg>
