<svg width="58" height="58" viewBox="0 0 58 58" fill="none" xmlns="http://www.w3.org/2000/svg">
<g clip-path="url(#clip0_16_137)">
<path d="M48.5554 22.3713H32.9414C32.5344 22.3713 32.3494 22.0753 32.3494 21.6683V6.72029C32.3494 6.31329 32.6084 5.98029 33.0154 5.98029C43.2644 5.98029 49.3327 11.8263 49.3327 21.6313C49.3324 22.0383 48.9624 22.3713 48.5554 22.3713ZM33.829 20.8913H47.778C47.519 12.7513 42.339 7.71929 33.829 7.46029V20.8913Z" fill="white"/>
<path d="M28.9214 41.7962C19.7454 41.7962 12.5304 34.6922 12.5304 25.6272C12.5304 15.6742 19.4124 8.97723 29.6614 8.97723C30.0684 8.97723 30.4014 9.31023 30.4014 9.71723V21.0392C30.4014 21.2242 30.3274 21.4462 30.1794 21.5572C30.0314 21.7052 29.8464 21.7792 29.6244 21.7422H29.4394C27.5524 21.7422 26.0724 23.2592 26.0724 25.0722C26.0724 26.9222 27.5894 28.4392 29.4394 28.4392C31.2894 28.4392 32.8064 26.9222 32.8064 25.0722C32.8064 24.9612 32.8064 24.8502 32.7694 24.7762C32.7324 24.5542 32.8064 24.3322 32.9544 24.1472C33.1024 23.9992 33.2874 23.8512 33.5094 23.8512H44.6094C45.0164 23.8512 45.3494 24.1842 45.3494 24.5912C45.3128 34.9142 38.7264 41.7962 28.9214 41.7962ZM28.9214 10.4942C19.9674 10.7902 14.0104 16.8212 14.0104 25.6272C14.0104 33.9892 20.4114 40.2792 28.9214 40.2792C37.7274 40.2792 43.5364 34.4332 43.8324 25.3682H34.2494C34.1014 27.9212 31.9924 29.9192 29.4394 29.9192C26.7754 29.9192 24.5924 27.7362 24.5924 25.0722C24.5924 22.5562 26.4794 20.5212 28.9214 20.2622V10.4942Z" fill="white"/>
<path d="M7.58578 52.472C7.40445 52.472 7.24178 52.512 7.09778 52.592C6.95378 52.6667 6.83111 52.7787 6.72978 52.928C6.62845 53.072 6.55111 53.248 6.49778 53.456C6.44445 53.664 6.41778 53.9013 6.41778 54.168C6.41778 54.5253 6.46311 54.8267 6.55378 55.072C6.64445 55.3173 6.78311 55.504 6.96978 55.632C7.15645 55.7547 7.39111 55.816 7.67378 55.816C7.92445 55.816 8.16711 55.7813 8.40178 55.712C8.64178 55.6427 8.88178 55.5573 9.12178 55.456V56.76C8.87111 56.872 8.61245 56.952 8.34578 57C8.08445 57.0533 7.80445 57.08 7.50578 57.08C6.88711 57.08 6.38045 56.9573 5.98578 56.712C5.59111 56.4667 5.30045 56.1253 5.11378 55.688C4.92711 55.2453 4.83378 54.736 4.83378 54.16C4.83378 53.728 4.89245 53.3333 5.00978 52.976C5.13245 52.6133 5.31111 52.3013 5.54578 52.04C5.78045 51.7733 6.06845 51.568 6.40978 51.424C6.75645 51.28 7.15378 51.208 7.60178 51.208C7.87911 51.208 8.16978 51.24 8.47378 51.304C8.77778 51.368 9.07645 51.4693 9.36978 51.608L8.89778 52.824C8.68978 52.7227 8.47911 52.64 8.26578 52.576C8.05245 52.5067 7.82578 52.472 7.58578 52.472ZM12.7571 57H11.2131V52.552H9.82109V51.288H14.1491V52.552H12.7571V57ZM17.9052 57L17.6252 55.928H15.7692L15.4812 57H13.7852L15.6492 51.264H17.7052L19.5932 57H17.9052ZM17.0572 53.728C17.0305 53.6267 16.9932 53.4827 16.9452 53.296C16.8972 53.104 16.8492 52.9067 16.8012 52.704C16.7532 52.5013 16.7158 52.336 16.6892 52.208C16.6678 52.336 16.6332 52.496 16.5852 52.688C16.5425 52.88 16.4972 53.0693 16.4492 53.256C16.4065 53.4427 16.3692 53.6 16.3372 53.728L16.0892 54.664H17.3052L17.0572 53.728ZM22.1633 57H20.6193V52.552H19.2273V51.288H23.5553V52.552H22.1633V57ZM24.3699 51.288H25.8099V53.904C25.8099 54.0213 25.8072 54.144 25.8019 54.272C25.8019 54.4 25.7992 54.528 25.7939 54.656C25.7886 54.7787 25.7806 54.896 25.7699 55.008C25.7646 55.12 25.7566 55.2187 25.7459 55.304H25.7779L28.1299 51.288H29.8979V57H28.4579V54.528C28.4579 54.4213 28.4579 54.3013 28.4579 54.168C28.4632 54.0293 28.4686 53.888 28.4739 53.744C28.4846 53.6 28.4926 53.464 28.4979 53.336C28.5086 53.2027 28.5192 53.0853 28.5299 52.984H28.4979L26.1459 57H24.3699V51.288ZM33.6717 52.472C33.4904 52.472 33.3277 52.512 33.1837 52.592C33.0397 52.6667 32.9171 52.7787 32.8157 52.928C32.7144 53.072 32.6371 53.248 32.5837 53.456C32.5304 53.664 32.5037 53.9013 32.5037 54.168C32.5037 54.5253 32.5491 54.8267 32.6397 55.072C32.7304 55.3173 32.8691 55.504 33.0557 55.632C33.2424 55.7547 33.4771 55.816 33.7597 55.816C34.0104 55.816 34.2531 55.7813 34.4877 55.712C34.7277 55.6427 34.9677 55.5573 35.2077 55.456V56.76C34.9571 56.872 34.6984 56.952 34.4317 57C34.1704 57.0533 33.8904 57.08 33.5917 57.08C32.9731 57.08 32.4664 56.9573 32.0717 56.712C31.6771 56.4667 31.3864 56.1253 31.1997 55.688C31.0131 55.2453 30.9197 54.736 30.9197 54.16C30.9197 53.728 30.9784 53.3333 31.0957 52.976C31.2184 52.6133 31.3971 52.3013 31.6317 52.04C31.8664 51.7733 32.1544 51.568 32.4957 51.424C32.8424 51.28 33.2397 51.208 33.6877 51.208C33.9651 51.208 34.2557 51.24 34.5597 51.304C34.8637 51.368 35.1624 51.4693 35.4557 51.608L34.9837 52.824C34.7757 52.7227 34.5651 52.64 34.3517 52.576C34.1384 52.5067 33.9117 52.472 33.6717 52.472ZM38.843 57H37.299V52.552H35.907V51.288H40.235V52.552H38.843V57ZM41.0496 51.288H42.4896V53.904C42.4896 54.0213 42.4869 54.144 42.4816 54.272C42.4816 54.4 42.4789 54.528 42.4736 54.656C42.4683 54.7787 42.4603 54.896 42.4496 55.008C42.4443 55.12 42.4363 55.2187 42.4256 55.304H42.4576L44.8096 51.288H46.5776V57H45.1376V54.528C45.1376 54.4213 45.1376 54.3013 45.1376 54.168C45.1429 54.0293 45.1483 53.888 45.1536 53.744C45.1643 53.6 45.1723 53.464 45.1776 53.336C45.1883 53.2027 45.1989 53.0853 45.2096 52.984H45.1776L42.8256 57H41.0496V51.288ZM52.7994 57H51.0554L49.3594 54.104V57H47.8074V51.288H49.3594V54.056L50.9914 51.288H52.6874L50.9274 54.016L52.7994 57ZM56.8895 57L56.6095 55.928H54.7535L54.4655 57H52.7695L54.6335 51.264H56.6895L58.5775 57H56.8895ZM56.0415 53.728C56.0149 53.6267 55.9775 53.4827 55.9295 53.296C55.8815 53.104 55.8335 52.9067 55.7855 52.704C55.7375 52.5013 55.7002 52.336 55.6735 52.208C55.6522 52.336 55.6175 52.496 55.5695 52.688C55.5269 52.88 55.4815 53.0693 55.4335 53.256C55.3909 53.4427 55.3535 53.6 55.3215 53.728L55.0735 54.664H56.2895L56.0415 53.728Z" fill="white"/>
</g>
<defs>
<clipPath id="clip0_16_137">
<rect width="58" height="58" fill="white"/>
</clipPath>
</defs>
</svg>
