<svg width="36" height="36" viewBox="0 0 36 36" fill="none" xmlns="http://www.w3.org/2000/svg">
<path d="M33.1336 8.75986L30.0304 5.65594C29.9214 5.54722 29.7741 5.48566 29.6197 5.48566C29.4656 5.48566 29.318 5.54722 29.2089 5.65594L17.9953 16.8696L15.8101 14.6851C15.5833 14.4583 15.2157 14.4583 14.9886 14.6851L11.8846 17.789C11.7756 17.8977 11.7144 18.0457 11.7144 18.1998C11.7144 18.3535 11.7756 18.5015 11.8846 18.6105L17.5662 24.2906C17.6749 24.3993 17.8225 24.4609 17.9769 24.4609C17.9838 24.4609 17.9902 24.4573 17.9971 24.4573C18.0028 24.4573 18.009 24.4605 18.0151 24.4605C18.1641 24.4605 18.3121 24.4037 18.4258 24.2903L33.1336 9.58174C33.3604 9.35422 33.3604 8.98666 33.1336 8.75986Z" fill="white"/>
</svg>
